<svg width="172" height="133" viewBox="0 0 172 133" fill="none" xmlns="http://www.w3.org/2000/svg">
<path d="M4.875 25.3636H30.4318L48.0114 68.2045H48.8977L66.4773 25.3636H92.0341V101H71.9432V57.2727H71.3523L54.5114 100.409H42.3977L25.5568 56.9773H24.9659V101H4.875V25.3636Z" fill="black"/>
<path d="M1.21094 114H6L10.0625 123.906H10.25L14.3125 114H19.1016V130H15.3359V120.172H15.2031L11.3594 129.898H8.95313L5.10938 120.117H4.97656V130H1.21094V114ZM22.8337 130V114H33.7555V117.141H26.7009V120.422H33.0602V123.57H26.7009V130H22.8337ZM46.7025 114H50.5619V124.32C50.5619 125.513 50.278 126.552 49.7103 127.437C49.1426 128.318 48.3509 129 47.3353 129.484C46.3197 129.964 45.14 130.203 43.7962 130.203C42.4369 130.203 41.2494 129.964 40.2337 129.484C39.2181 129 38.4291 128.318 37.8666 127.437C37.3041 126.552 37.0228 125.513 37.0228 124.32V114H40.89V123.984C40.89 124.536 41.0098 125.029 41.2494 125.461C41.4942 125.893 41.8353 126.232 42.2728 126.477C42.7103 126.721 43.2181 126.844 43.7962 126.844C44.3744 126.844 44.8796 126.721 45.3119 126.477C45.7494 126.232 46.0905 125.893 46.3353 125.461C46.5801 125.029 46.7025 124.536 46.7025 123.984V114ZM67.9229 114V130H64.6416L58.2745 120.766H58.1729V130H54.3057V114H57.6338L63.9307 123.219H64.0635V114H67.9229ZM77.5886 130H71.6745V114H77.5808C79.211 114 80.6146 114.32 81.7917 114.961C82.974 115.596 83.8855 116.513 84.5261 117.711C85.1667 118.904 85.487 120.331 85.487 121.992C85.487 123.659 85.1667 125.091 84.5261 126.289C83.8907 127.487 82.9818 128.406 81.7995 129.047C80.6172 129.682 79.2136 130 77.5886 130ZM75.5417 126.703H77.4402C78.336 126.703 79.0938 126.552 79.7136 126.25C80.3386 125.943 80.8099 125.445 81.1277 124.758C81.4506 124.065 81.612 123.143 81.612 121.992C81.612 120.841 81.4506 119.924 81.1277 119.242C80.8047 118.555 80.3282 118.06 79.698 117.758C79.073 117.451 78.3021 117.297 77.3855 117.297H75.5417V126.703ZM104.166 122C104.166 123.76 103.828 125.253 103.151 126.477C102.474 127.701 101.557 128.63 100.401 129.266C99.2497 129.901 97.9581 130.219 96.5258 130.219C95.0883 130.219 93.794 129.898 92.643 129.258C91.4919 128.617 90.5779 127.687 89.9008 126.469C89.2289 125.245 88.893 123.755 88.893 122C88.893 120.24 89.2289 118.747 89.9008 117.523C90.5779 116.299 91.4919 115.37 92.643 114.734C93.794 114.099 95.0883 113.781 96.5258 113.781C97.9581 113.781 99.2497 114.099 100.401 114.734C101.557 115.37 102.474 116.299 103.151 117.523C103.828 118.747 104.166 120.24 104.166 122ZM100.213 122C100.213 120.958 100.065 120.078 99.768 119.359C99.4763 118.641 99.0544 118.096 98.5023 117.727C97.9555 117.357 97.2966 117.172 96.5258 117.172C95.7602 117.172 95.1013 117.357 94.5492 117.727C93.9971 118.096 93.5727 118.641 93.2758 119.359C92.9841 120.078 92.8383 120.958 92.8383 122C92.8383 123.042 92.9841 123.922 93.2758 124.641C93.5727 125.359 93.9971 125.904 94.5492 126.273C95.1013 126.643 95.7602 126.828 96.5258 126.828C97.2966 126.828 97.9555 126.643 98.5023 126.273C99.0544 125.904 99.4763 125.359 99.768 124.641C100.065 123.922 100.213 123.042 100.213 122ZM128.314 119.797H124.408C124.356 119.396 124.249 119.034 124.088 118.711C123.926 118.388 123.713 118.112 123.447 117.883C123.181 117.654 122.866 117.479 122.502 117.359C122.142 117.234 121.744 117.172 121.306 117.172C120.53 117.172 119.861 117.362 119.299 117.742C118.741 118.122 118.312 118.672 118.01 119.391C117.713 120.109 117.564 120.979 117.564 122C117.564 123.062 117.715 123.953 118.017 124.672C118.325 125.385 118.754 125.924 119.306 126.289C119.864 126.648 120.523 126.828 121.283 126.828C121.71 126.828 122.098 126.773 122.447 126.664C122.801 126.555 123.111 126.396 123.377 126.188C123.648 125.974 123.869 125.716 124.041 125.414C124.218 125.107 124.34 124.76 124.408 124.375L128.314 124.398C128.247 125.107 128.041 125.805 127.697 126.492C127.358 127.18 126.892 127.807 126.299 128.375C125.705 128.937 124.981 129.385 124.127 129.719C123.278 130.052 122.304 130.219 121.205 130.219C119.757 130.219 118.46 129.901 117.314 129.266C116.174 128.625 115.273 127.693 114.611 126.469C113.95 125.245 113.619 123.755 113.619 122C113.619 120.24 113.955 118.747 114.627 117.523C115.299 116.299 116.207 115.37 117.353 114.734C118.499 114.099 119.783 113.781 121.205 113.781C122.174 113.781 123.069 113.917 123.892 114.188C124.715 114.453 125.439 114.844 126.064 115.359C126.689 115.87 127.197 116.497 127.588 117.242C127.978 117.987 128.22 118.839 128.314 119.797ZM131.847 130V114H143.003V117.141H135.714V120.422H142.433V123.57H135.714V126.859H143.003V130H131.847ZM146.745 130V114H150.612V126.859H157.269V130H146.745ZM160.591 130V114H171.747V117.141H164.458V120.422H171.177V123.57H164.458V126.859H171.747V130H160.591Z" fill="black"/>
<path d="M146.488 62.8661V32.664H166V101H102.101V80.1331H130.342L94 41.145L110.032 24L146.488 62.8661Z" fill="black"/>
</svg>
